<?xml version="1.0" encoding="utf-8"?><svg id="After_Effects_64" data-name="After Effects 64" xmlns="http://www.w3.org/2000/svg" width="63.999" height="62" viewBox="0 0 63.999 62">
  <path id="Path_99504" data-name="Path 99504" d="M11.4,0H52.8A11.171,11.171,0,0,1,64,11.291V50.709A11.34,11.34,0,0,1,52.6,62H11.4A11.341,11.341,0,0,1,0,50.709V11.291A11.216,11.216,0,0,1,11.4,0Z" fill="#00005b"/>
  <path id="Path_99505" data-name="Path 99505" d="M21.841,29.4h-10l-2,6.2c0,.2-.2.4-.6.4h-5c-.2.2-.4,0-.2-.4l8.6-24.6c0-.2.2-.6.2-.8a5.537,5.537,0,0,0,.2-1.8l.2-.4h6.8c.2,0,.4,0,.4.2l9.8,27.4c0,.2,0,.4-.2.4h-5.6a.43.43,0,0,1-.4-.4Zm-8.4-5.2h6.8c-.2-.6-.4-1.2-.6-2a9.749,9.749,0,0,0-.8-2.2c-.2-.8-.6-1.6-.8-2.4a11.275,11.275,0,0,0-.8-2.4,10.778,10.778,0,0,1-.6-2h0a16.893,16.893,0,0,1-1,3.4c-.4,1.2-.8,2.6-1.2,4A24.18,24.18,0,0,1,13.441,24.2Z" transform="translate(3.958 7.722)" fill="#99f"/>
  <path id="Path_99506" data-name="Path 99506" d="M32.2,23.7H23.8a11.275,11.275,0,0,0,.8,2.4,3.993,3.993,0,0,0,2,1.6,9.342,9.342,0,0,0,3.4.6,13.5,13.5,0,0,0,2.8-.4l2.4-.6c.2-.2.2,0,.2.2v4.4l-.2.2a12.936,12.936,0,0,1-2.6.8,24.5,24.5,0,0,1-3.8.4,13.377,13.377,0,0,1-5.2-1,10.309,10.309,0,0,1-3.4-2.6,11.118,11.118,0,0,1-1.8-3.4,12.558,12.558,0,0,1-.6-3.8,15.225,15.225,0,0,1,.6-4.2,10.487,10.487,0,0,1,2-3.6,10.175,10.175,0,0,1,3.2-2.6,10.174,10.174,0,0,1,4.4-.8,10.445,10.445,0,0,1,4.2.8A7.2,7.2,0,0,1,35,14.3a10.965,10.965,0,0,1,1.6,3,9.058,9.058,0,0,1,.6,3.2v1.8a2.166,2.166,0,0,1-.2,1.2.43.43,0,0,1-.4.4H34.2A6.8,6.8,0,0,0,32.2,23.7Zm-8.4-4H31a.735.735,0,0,0,.6-.2v-.2a1.8,1.8,0,0,0-.2-1A3.075,3.075,0,0,0,28,15.9a4.469,4.469,0,0,0-3.6,2A3.226,3.226,0,0,0,23.8,19.7Z" transform="translate(17.8 10.966)" fill="#99f"/>
</svg>
