<?xml version="1.0" encoding="utf-8"?><svg id="Audition_64" data-name="Audition 64" xmlns="http://www.w3.org/2000/svg" width="63.999" height="62" viewBox="0 0 63.999 62">
  <path id="Path_99513" data-name="Path 99513" d="M11.4,0H52.8A11.171,11.171,0,0,1,64,11.291V50.709A11.34,11.34,0,0,1,52.6,62H11.4A11.341,11.341,0,0,1,0,50.709V11.291A11.216,11.216,0,0,1,11.4,0Z" fill="#00005b"/>
  <path id="Path_99514" data-name="Path 99514" d="M21.675,29.489H11.633L9.625,35.715c0,.2-.2.4-.6.4H4a.432.432,0,0,1-.4-.4l8.837-24.7c0-.2.2-.6.2-.8a5.56,5.56,0,0,0,.2-1.807l.2-.4h6.828c.2,0,.4,0,.4.2L30.11,35.715c0,.2,0,.4-.2.4H24.286a.432.432,0,0,1-.4-.4ZM13.24,24.267h6.828c-.2-.6-.4-1.2-.6-2.008a9.79,9.79,0,0,0-.8-2.209c-.2-.8-.6-1.607-.8-2.41a11.322,11.322,0,0,0-.8-2.41c-.2-.8-.4-1.406-.6-2.008h0a16.964,16.964,0,0,1-1,3.414c-.4,1.2-.8,2.611-1.2,4.017A24.281,24.281,0,0,1,13.24,24.267Z" transform="translate(3.63 7.669)" fill="#99f"/>
  <path id="Path_99515" data-name="Path 99515" d="M36.478,11.7V31.584a1.81,1.81,0,0,0,.2,1c0,.2,0,.4-.4.4H31.658c-.2,0-.4,0-.6-.4,0-.2-.2-.4-.2-.6v-.6a5.526,5.526,0,0,1-3.012,1.607,15.5,15.5,0,0,1-3.012.4,11.853,11.853,0,0,1-2.812-.4,5.2,5.2,0,0,1-2.209-1.406A11.387,11.387,0,0,1,18.2,28.973a12.611,12.611,0,0,1-.6-3.816V11.9l.2-.4h5.222l.4.2h0V24.354a4.25,4.25,0,0,0,.8,2.812,3.262,3.262,0,0,0,2.812,1,5.864,5.864,0,0,0,1.807-.4,11.926,11.926,0,0,0,1.607-.8V11.7a.432.432,0,0,1,.4-.4h5.021l.6.4Z" transform="translate(17.538 10.915)" fill="#99f"/>
</svg>
