<?xml version="1.0" encoding="utf-8"?><svg id="Lightroom_64" data-name="Lightroom 64" xmlns="http://www.w3.org/2000/svg" width="63.999" height="62" viewBox="0 0 63.999 62">
  <path id="Path_99544" data-name="Path 99544" d="M11.4,0H52.8A11.171,11.171,0,0,1,64,11.291V50.709A11.34,11.34,0,0,1,52.6,62H11.4A11.341,11.341,0,0,1,0,50.709V11.291A11.216,11.216,0,0,1,11.4,0Z" fill="#001e36"/>
  <path id="Path_99545" data-name="Path 99545" d="M25.5,36.2H8.5a.43.43,0,0,1-.4-.4V8.4A.43.43,0,0,1,8.5,8h5.2l.4.2h0V30.6H26.5a.43.43,0,0,1,.4.4l-1,4.8-.2.2Z" transform="translate(8.1 7.721)" fill="#31a8ff"/>
  <path id="Path_99546" data-name="Path 99546" d="M19,11.6h4.6c.2,0,.4.2.6.4a.735.735,0,0,1,.2.6c0,.2.2.6.2.8v1a7.2,7.2,0,0,1,2.8-2.2,9.1,9.1,0,0,1,4-1,.7.7,0,0,1,.4.2h0v5.4a.43.43,0,0,1-.4.4,8.689,8.689,0,0,0-5,1,3.587,3.587,0,0,0-1.4,1V32.8a.43.43,0,0,1-.4.4H19.4a.43.43,0,0,1-.4-.4v-19a5.537,5.537,0,0,0-.2-1.8l.2-.4Z" transform="translate(18.8 10.869)" fill="#31a8ff"/>
</svg>
