<?xml version="1.0" encoding="utf-8"?><svg id="Media_Encoder_64" data-name="Media Encoder 64" xmlns="http://www.w3.org/2000/svg" width="63.999" height="62" viewBox="0 0 63.999 62">
  <path id="Path_99547" data-name="Path 99547" d="M11.4,0H52.8A11.171,11.171,0,0,1,64,11.291V50.709A11.34,11.34,0,0,1,52.6,62H11.4A11.341,11.341,0,0,1,0,50.709V11.291A11.216,11.216,0,0,1,11.4,0Z" fill="#00005b"/>
  <path id="Path_99548" data-name="Path 99548" d="M5.2,8.2,5.6,8h7.6a.619.619,0,0,1,.4.2,17.749,17.749,0,0,0,.6,2.8c.2,1,.6,2.2.8,3.4a26.643,26.643,0,0,0,1,3.8c.4,1.4.6,2.6,1,3.8a27.27,27.27,0,0,1,.8,3.4,26.084,26.084,0,0,0,.6,2.6h0a20.677,20.677,0,0,1,.6-2.4c.4-1,.6-2.2,1-3.4a26.643,26.643,0,0,0,1-3.8c.2-1.2.8-2.6,1-4a18.93,18.93,0,0,1,1-3.6c.4-1.2.6-2,.8-2.8h7.8l.4.2h0l1,27.4v.2l-.2.2H27.2V12.4h0c-.2.8-.4,1.6-.6,2.8s-.6,2.4-1,4-.8,3-1.2,4.4-.8,3-1.2,4.6-.8,3-1.2,4.2c-.4,1.4-.6,2.4-1,3.4a.43.43,0,0,1-.4.4H15.8a.43.43,0,0,1-.4-.4c-.2-1-.6-2.2-.8-3.4-.4-1.4-.6-2.6-1-4.2s-.6-2.8-1-4.4a44.99,44.99,0,0,1-1-4.4c-.2-1.4-.6-2.8-.8-4a12.442,12.442,0,0,0-.8-3.2h0V20a43.5,43.5,0,0,1-.2,5,48.738,48.738,0,0,1-.2,5.4,49.037,49.037,0,0,0-.4,5.4.43.43,0,0,1-.4.4h-5v-.4Z" transform="translate(3.8 7.721)" fill="#99f"/>
  <path id="Path_99549" data-name="Path 99549" d="M33.4,23.8H25a7.165,7.165,0,0,0,.8,2.2,3.993,3.993,0,0,0,2,1.6,7.969,7.969,0,0,0,3.4.6A13.2,13.2,0,0,0,34,28a12.935,12.935,0,0,0,2.6-.8c.2-.2.2,0,.2.2v4.4l-.2.2a11.565,11.565,0,0,1-2.8,1,24.5,24.5,0,0,1-3.8.4,13.377,13.377,0,0,1-5.2-1,10.309,10.309,0,0,1-3.4-2.6,10.152,10.152,0,0,1-1.8-3.6,11.645,11.645,0,0,1-.6-3.8,15.225,15.225,0,0,1,.6-4.2,10.487,10.487,0,0,1,2-3.6A10.175,10.175,0,0,1,24.8,12a11.7,11.7,0,0,1,4.4-1,10.445,10.445,0,0,1,4.2.8A6.013,6.013,0,0,1,36.2,14a10.965,10.965,0,0,1,1.6,3,9.058,9.058,0,0,1,.6,3.2V22a2.165,2.165,0,0,1-.2,1.2.43.43,0,0,1-.4.4H35.4A6.166,6.166,0,0,1,33.4,23.8ZM25,19.6h7.8v-.2a1.8,1.8,0,0,0-.2-1A3.075,3.075,0,0,0,29.2,16a4.469,4.469,0,0,0-3.6,2A2.271,2.271,0,0,0,25,19.6Z" transform="translate(19 10.672)" fill="#99f"/>
</svg>
